<?xml version="1.0" encoding="utf-8"?>
<!-- Generator: Adobe Illustrator 19.0.0, SVG Export Plug-In . SVG Version: 6.00 Build 0)  -->
<svg version="1.1" id="Layer_1" xmlns="http://www.w3.org/2000/svg" xmlns:xlink="http://www.w3.org/1999/xlink" x="0px" y="0px"
	 viewBox="-176 383.3 258 26.7" style="enable-background:new -176 383.3 258 26.7;" xml:space="preserve">
<style type="text/css">
	.st0{fill:#25408F;}
	.st1{font-family:'RobotoCondensed-Bold';}
	.st2{font-size:9px;}
	.st3{font-family:'RobotoCondensed-Regular';}
	.st4{font-size:8px;}
	.st5{fill:#97A767;}
	.st6{fill:#839151;}
	.st7{fill:#707D3E;}
	.st8{fill:#606C2F;}
	.st9{fill:#ABBE7E;}
	.st10{fill:#C2D596;}
	.st11{fill:#D7E8B0;}
	.st12{fill:#E0E2E2;}
	.st13{font-size:6px;}
	.st14{fill:#FFFFFF;}
	.st15{fill:none;stroke:#7E8083;stroke-width:0.5;}
	.st16{fill:#7E8083;}
</style>
<text transform="matrix(1 0 0 1 -176 390.5454)" class="st0 st1 st2">Count of </text>
<text transform="matrix(1 0 0 1 -143.2 390.5454)" class="st0 st1 st2">T</text>
<text transform="matrix(1 0 0 1 -138.6 390.5454)" class="st0 st1 st2">A Activities </text>
<text transform="matrix(1 0 0 1 -95.918 390.5454)" class="st0 st3 st4">(</text>
<text transform="matrix(1 0 0 1 -93.418 390.5454)" class="st0 st3 st4">b</text>
<text transform="matrix(1 0 0 1 -89.518 390.5454)" class="st0 st3 st4">y wa</text>
<text transform="matrix(1 0 0 1 -75.318 390.5454)" class="st0 st3 st4">r</text>
<text transform="matrix(1 0 0 1 -72.918 390.5454)" class="st0 st3 st4">d)</text>
<rect id="XMLID_24_" x="-94.6" y="394.6" class="st5" width="20.4" height="15.3"/>
<rect id="XMLID_23_" x="-74.2" y="394.6" class="st6" width="20.4" height="15.3"/>
<rect id="XMLID_22_" x="-53.7" y="394.6" class="st7" width="20.4" height="15.3"/>
<rect id="XMLID_21_" x="-33.3" y="394.6" class="st8" width="20.4" height="15.3"/>
<rect id="XMLID_20_" x="-115" y="394.6" class="st9" width="20.4" height="15.3"/>
<rect id="XMLID_19_" x="-135.4" y="394.6" class="st10" width="20.4" height="15.3"/>
<rect id="XMLID_18_" x="-155.6" y="394.6" class="st11" width="20.4" height="15.3"/>
<rect id="XMLID_17_" x="-176" y="394.6" class="st12" width="20.4" height="15.3"/>
<text id="XMLID_16_" transform="matrix(1 0 0 1 -172.0166 405.4424)" class="st3 st13">None</text>
<text id="XMLID_15_" transform="matrix(1 0 0 1 -147.0811 405.4424)" class="st3 st13">1</text>
<text id="XMLID_14_" transform="matrix(1 0 0 1 -127.0942 405.4424)" class="st3 st13">2</text>
<text id="XMLID_13_" transform="matrix(1 0 0 1 -106.8398 405.4424)" class="st3 st13">3</text>
<text id="XMLID_12_" transform="matrix(1 0 0 1 -86.5859 405.4424)" class="st3 st13">4</text>
<text id="XMLID_11_" transform="matrix(1 0 0 1 -66.3315 405.4424)" class="st3 st13">5</text>
<text id="XMLID_10_" transform="matrix(1 0 0 1 -46.0771 405.4424)" class="st3 st13">6</text>
<text id="XMLID_9_" transform="matrix(1 0 0 1 -25.8228 405.4424)" class="st3 st13">7</text>
<path id="XMLID_7_" class="st14" d="M0.7,410c4.4,0,8-3.5,8-7.8c0-4.3-3.6-7.7-8-7.7s-8,3.5-8,7.7C-7.2,406.5-3.7,410,0.7,410"/>
<ellipse id="XMLID_6_" class="st15" cx="0.7" cy="402.2" rx="8" ry="7.8"/>
<text id="XMLID_5_" transform="matrix(1 0 0 1 -1.2334 406.4083)" class="st16 st3 st4">1</text>
<text transform="matrix(1 0 0 1 12.1841 405.3599)" class="st3 st13">indic</text>
<text transform="matrix(1 0 0 1 23.4841 405.3599)" class="st3 st13">a</text>
<text transform="matrix(1 0 0 1 26.4841 405.3599)" class="st3 st13">t</text>
<text transform="matrix(1 0 0 1 28.4841 405.3599)" class="st3 st13">es</text>
<text transform="matrix(1 0 0 1 35.3841 405.3599)" class="st3 st13"> w</text>
<text transform="matrix(1 0 0 1 40.9841 405.3599)" class="st3 st13">a</text>
<text transform="matrix(1 0 0 1 44.0841 405.3599)" class="st3 st13">r</text>
<text transform="matrix(1 0 0 1 45.9841 405.3599)" class="st3 st13">d o</text>
<text transform="matrix(1 0 0 1 53.8841 405.3599)" class="st3 st13">f</text>
<text transform="matrix(1 0 0 1 55.9841 405.3599)" class="st3 st13"> </text>
<text transform="matrix(1 0 0 1 57.4841 405.3599)" class="st3 st13">M</text>
<text transform="matrix(1 0 0 1 62.2841 405.3599)" class="st3 st13">unicip</text>
<text transform="matrix(1 0 0 1 76.5841 405.3599)" class="st3 st13">a</text>
<text transform="matrix(1 0 0 1 79.6841 405.3599)" class="st3 st13">l</text>
<text id="XMLID_2_" transform="matrix(1 0 0 1 -6.5 391.7916)" class="st3 st13">*Note:</text>
</svg>
